<?xml version="1.0" encoding="UTF-8" standalone="no"?>
<!DOCTYPE svg PUBLIC "-//W3C//DTD SVG 1.1//EN" "http://www.w3.org/Graphics/SVG/1.1/DTD/svg11.dtd">
<svg width="100%" height="100%" viewBox="0 0 179 181" version="1.1" xmlns="http://www.w3.org/2000/svg" xmlns:xlink="http://www.w3.org/1999/xlink" xml:space="preserve" xmlns:serif="http://www.serif.com/" style="fill-rule:evenodd;clip-rule:evenodd;stroke-linecap:round;stroke-linejoin:round;stroke-miterlimit:1.5;">
    <g transform="matrix(1,0,0,1,-183,-71.2706)">
        <g transform="matrix(1,0,0,1,4,4)">
            <g transform="matrix(1,0,0,1,-116,-57)">
                <path d="M313.087,133.538L313.087,300L349.69,300L349.69,228.193L417.067,228.193L417.067,300L453.67,300L453.67,133.538L417.067,133.538L417.067,197.419L349.69,197.419L349.69,133.538L313.087,133.538Z" style="fill-rule:nonzero;"/>
            </g>
            <g transform="matrix(-1,0,0,1,526,41)">
                <path d="M345,142L253.622,174L343,113L345,142Z" style="fill:white;"/>
                <clipPath id="_clip1">
                    <path d="M345,142L253.622,174L343,113L345,142Z"/>
                </clipPath>
                <g clip-path="url(#_clip1)">
                    <g transform="matrix(1,0,0,1,-116,-57)">
                        <path d="M313.087,133.538L313.087,300L349.69,300L349.69,228.193L417.067,228.193L417.067,300L453.67,300L453.67,133.538L417.067,133.538L417.067,197.419L349.69,197.419L349.69,133.538L313.087,133.538Z" style="fill-rule:nonzero;"/>
                    </g>
                </g>
                <path d="M345,142L253.622,174L343,113L345,142Z" style="fill:none;stroke:white;stroke-width:4px;"/>
            </g>
            <g transform="matrix(0.498975,-0.390835,-0.452312,-0.577463,116.927,313.847)">
                <path d="M337.67,139.969L308.199,170.838L337.899,94.362L337.67,139.969Z" style="fill:white;"/>
                <clipPath id="_clip2">
                    <path d="M337.67,139.969L308.199,170.838L337.899,94.362L337.67,139.969Z"/>
                </clipPath>
                <g clip-path="url(#_clip2)">
                    <g transform="matrix(1,0,0,1,-116,-57)">
                        <path d="M313.087,133.538L313.087,300L349.69,300L349.69,228.193L417.067,228.193L417.067,300L453.67,300L453.67,133.538L417.067,133.538L417.067,197.419L349.69,197.419L349.69,133.538L313.087,133.538Z" style="fill-rule:nonzero;"/>
                    </g>
                </g>
                <path d="M337.67,139.969L308.199,170.838L337.899,94.362L337.67,139.969Z" style="fill:none;stroke:white;stroke-width:2.19px;"/>
            </g>
            <g transform="matrix(-0.254515,-0.580474,-0.671782,0.29455,490.206,237.728)">
                <path d="M354.535,121.681L275,206L343,113L354.535,121.681Z" style="fill:white;"/>
                <clipPath id="_clip3">
                    <path d="M354.535,121.681L275,206L343,113L354.535,121.681Z"/>
                </clipPath>
                <g clip-path="url(#_clip3)">
                    <g transform="matrix(1,0,0,1,-116,-57)">
                        <path d="M313.087,133.538L313.087,300L349.69,300L349.69,228.193L417.067,228.193L417.067,300L453.67,300L453.67,133.538L417.067,133.538L417.067,197.419L349.69,197.419L349.69,133.538L313.087,133.538Z" style="fill-rule:nonzero;"/>
                    </g>
                </g>
                <path d="M354.535,121.681L275,206L343,113L354.535,121.681Z" style="fill:none;stroke:white;stroke-width:1.46px;"/>
            </g>
            <g transform="matrix(-0.0281104,-0.633197,-0.732797,0.0325321,442.823,322.862)">
                <path d="M340.809,144.254L300.806,196.163L340.4,113.576L340.809,144.254Z" style="fill:white;"/>
                <clipPath id="_clip4">
                    <path d="M340.809,144.254L300.806,196.163L340.4,113.576L340.809,144.254Z"/>
                </clipPath>
                <g clip-path="url(#_clip4)">
                    <g transform="matrix(1,0,0,1,-116,-57)">
                        <path d="M313.087,133.538L313.087,300L349.69,300L349.69,228.193L417.067,228.193L417.067,300L453.67,300L453.67,133.538L417.067,133.538L417.067,197.419L349.69,197.419L349.69,133.538L313.087,133.538Z" style="fill-rule:nonzero;"/>
                    </g>
                </g>
                <path d="M340.809,144.254L300.806,196.163L340.4,113.576L340.809,144.254Z" style="fill:none;stroke:white;stroke-width:1.46px;"/>
            </g>
            <g transform="matrix(-0.279686,-0.568774,-0.658241,0.32368,442.412,283.893)">
                <path d="M345,142L275.094,193.807L343,113L345,142Z" style="fill:white;"/>
                <clipPath id="_clip5">
                    <path d="M345,142L275.094,193.807L343,113L345,142Z"/>
                </clipPath>
                <g clip-path="url(#_clip5)">
                    <g transform="matrix(1,0,0,1,-116,-57)">
                        <path d="M313.087,133.538L313.087,300L349.69,300L349.69,228.193L417.067,228.193L417.067,300L453.67,300L453.67,133.538L417.067,133.538L417.067,197.419L349.69,197.419L349.69,133.538L313.087,133.538Z" style="fill-rule:nonzero;"/>
                    </g>
                </g>
                <path d="M345,142L275.094,193.807L343,113L345,142Z" style="fill:none;stroke:white;stroke-width:7.29px;"/>
            </g>
            <g transform="matrix(-0.279686,-0.568774,-0.658241,0.32368,470.326,291.051)">
                <path d="M345,142L275,206L343,113L345,142Z" style="fill:white;"/>
                <clipPath id="_clip6">
                    <path d="M345,142L275,206L343,113L345,142Z"/>
                </clipPath>
                <g clip-path="url(#_clip6)">
                    <g transform="matrix(1,0,0,1,-116,-57)">
                        <path d="M313.087,133.538L313.087,300L349.69,300L349.69,228.193L417.067,228.193L417.067,300L453.67,300L453.67,133.538L417.067,133.538L417.067,197.419L349.69,197.419L349.69,133.538L313.087,133.538Z" style="fill-rule:nonzero;"/>
                    </g>
                </g>
                <path d="M345,142L275,206L343,113L345,142Z" style="fill:none;stroke:white;stroke-width:1.46px;"/>
            </g>
            <g transform="matrix(0.142422,-0.617612,-0.714761,-0.164825,388.075,456.555)">
                <path d="M345,142L287.042,195.808L343,113L345,142Z" style="fill:white;"/>
                <clipPath id="_clip7">
                    <path d="M345,142L287.042,195.808L343,113L345,142Z"/>
                </clipPath>
                <g clip-path="url(#_clip7)">
                    <g transform="matrix(1,0,0,1,-116,-57)">
                        <path d="M313.087,133.538L313.087,300L349.69,300L349.69,228.193L417.067,228.193L417.067,300L453.67,300L453.67,133.538L417.067,133.538L417.067,197.419L349.69,197.419L349.69,133.538L313.087,133.538Z" style="fill-rule:nonzero;"/>
                    </g>
                </g>
                <path d="M345,142L287.042,195.808L343,113L345,142Z" style="fill:none;stroke:white;stroke-width:1.46px;"/>
            </g>
            <g transform="matrix(-0.00333405,-0.999994,-0.999994,0.00333405,482.86,508.025)">
                <path d="M345,142L275,206L337.833,125.577L345,142Z" style="fill:white;"/>
                <clipPath id="_clip8">
                    <path d="M345,142L275,206L337.833,125.577L345,142Z"/>
                </clipPath>
                <g clip-path="url(#_clip8)">
                    <g transform="matrix(1,0,0,1,-116,-57)">
                        <path d="M313.087,133.538L313.087,300L349.69,300L349.69,228.193L417.067,228.193L417.067,300L453.67,300L453.67,133.538L417.067,133.538L417.067,197.419L349.69,197.419L349.69,133.538L313.087,133.538Z" style="fill-rule:nonzero;"/>
                    </g>
                </g>
                <path d="M345,142L275,206L337.833,125.577L345,142Z" style="fill:none;stroke:white;stroke-width:3px;"/>
            </g>
            <g transform="matrix(1,0,0,1,5,4)">
                <path d="M345,142L275,206L343,113L345,142Z" style="fill:white;"/>
                <clipPath id="_clip9">
                    <path d="M345,142L275,206L343,113L345,142Z"/>
                </clipPath>
                <g clip-path="url(#_clip9)">
                    <g transform="matrix(1,0,0,1,-116,-57)">
                        <path d="M313.087,133.538L313.087,300L349.69,300L349.69,228.193L417.067,228.193L417.067,300L453.67,300L453.67,133.538L417.067,133.538L417.067,197.419L349.69,197.419L349.69,133.538L313.087,133.538Z" style="fill-rule:nonzero;"/>
                    </g>
                </g>
                <path d="M345,142L275,206L343,113L345,142Z" style="fill:none;stroke:white;stroke-width:1px;"/>
            </g>
            <g transform="matrix(0.792737,0,0,0.792737,61.9015,-193.798)">
                <text x="177px" y="551px" style="font-family:'HelveticaNeue-Bold', 'Helvetica Neue';font-weight:700;font-size:223.367px;fill:rgb(247,218,88);">B</text>
                <path d="M192.412,391.316C192.302,391.316 192.213,391.406 192.213,391.516C192.213,391.516 191.934,416.854 191.654,447.335C191.487,465.544 191.272,485.585 191.188,503.155C191.164,508.175 191.153,512.993 191.171,517.508C191.25,537.102 191.479,551 191.479,551C191.479,551.516 191.897,551.934 192.412,551.934C192.412,551.934 211.732,551.591 231.055,551.561C250.377,551.532 269.697,551.816 269.697,551.816C273.29,551.846 276.838,551.65 280.341,551.232C283.885,550.809 287.382,550.156 290.834,549.275C294.215,548.407 297.424,547.321 300.435,545.958C303.579,544.535 306.506,542.815 309.241,540.859C311.946,538.911 314.369,536.687 316.507,534.184C318.605,531.727 320.431,529.005 321.982,526.013C323.619,522.852 324.819,519.396 325.574,515.64C325.925,513.897 326.167,512.089 326.342,510.219C326.507,508.457 326.616,506.64 326.628,504.763C326.66,499.912 326.12,495.397 325.021,491.215C323.822,486.653 321.954,482.487 319.416,478.716C316.844,474.893 313.562,471.665 309.576,469.027C306.607,467.063 303.246,465.429 299.49,464.124C302.033,462.782 304.337,461.306 306.401,459.693C309.398,457.35 311.887,454.716 313.883,451.811C315.79,448.822 317.171,445.472 318.002,441.741C318.594,439.081 318.865,436.233 318.951,433.192C318.971,432.489 318.999,431.776 319.001,431.052C319.014,427.556 318.754,424.32 318.231,421.341C317.623,417.876 316.656,414.759 315.328,411.987C314.099,409.419 312.615,407.103 310.881,405.036C309.105,402.919 307.064,401.065 304.76,399.471C302.392,397.834 299.776,396.434 296.91,395.269C294.29,394.204 291.46,393.337 288.421,392.668C285.129,391.944 281.652,391.403 277.99,391.045C274.637,390.718 271.128,390.545 267.464,390.525C267.464,390.525 243.328,390.075 222.433,390.336C217.056,390.403 211.903,390.626 207.423,390.773C198.593,391.061 192.412,391.316 192.412,391.316ZM192.614,391.723C193.744,391.769 199.523,392.001 207.423,392.259C211.903,392.405 217.056,392.629 222.433,392.696C243.328,392.956 267.464,392.506 267.464,392.506C271.067,392.487 274.518,392.62 277.819,392.907C281.409,393.218 284.821,393.71 288.053,394.384C291,394.999 293.748,395.806 296.295,396.808C299.059,397.896 301.588,399.212 303.879,400.759C306.088,402.251 308.049,403.992 309.76,405.987C311.441,407.946 312.882,410.147 314.084,412.591C315.389,415.246 316.351,418.239 316.964,421.569C317.499,424.475 317.77,427.636 317.782,431.052C317.784,431.759 317.783,432.456 317.745,433.141C317.584,436.073 317.07,438.794 316.349,441.321C315.367,444.759 313.901,447.814 311.955,450.499C310.11,453.235 307.791,455.709 305.01,457.935C302.48,459.96 299.571,461.782 296.273,463.391C295.882,463.578 295.647,463.988 295.683,464.42C295.719,464.853 296.019,465.218 296.436,465.338C301.023,466.62 305.062,468.372 308.55,470.603C312.375,473.05 315.539,476.067 318.037,479.659C320.534,483.248 322.394,487.226 323.61,491.597C324.738,495.652 325.313,500.041 325.344,504.763C325.356,506.599 325.298,508.38 325.13,510.103C324.952,511.923 324.653,513.675 324.276,515.364C323.474,518.967 322.25,522.272 320.609,525.283C319.058,528.128 317.248,530.708 315.181,533.026C313.089,535.373 310.731,537.446 308.109,539.251C305.45,541.096 302.593,542.67 299.567,544.038C296.656,545.354 293.586,546.483 290.33,547.364C286.973,548.279 283.567,548.971 280.113,549.441C276.688,549.907 273.217,550.155 269.697,550.184C269.697,550.184 250.377,550.468 231.055,550.439C214.259,550.413 197.465,550.151 193.36,550.082C193.412,546.685 193.587,534.151 193.653,517.508C193.671,512.993 193.66,508.175 193.636,503.155C193.553,485.585 193.337,465.544 193.17,447.335C192.905,418.458 192.641,394.196 192.614,391.723ZM227.282,523.749C227.282,523.859 227.371,523.948 227.481,523.948C227.481,523.948 229.457,524.18 232.547,524.478C234.026,524.62 235.732,524.838 237.613,524.925C237.982,524.942 238.358,524.931 238.739,524.93C249.794,524.877 265.007,524.561 265.007,524.561C266.716,524.534 268.387,524.425 270.021,524.236C271.712,524.039 273.363,523.759 274.973,523.389C276.204,523.11 277.376,522.763 278.493,522.351C279.017,522.158 279.519,521.929 280.027,521.731C281.27,521.246 282.472,520.778 283.606,520.165C284.479,519.692 285.304,519.167 286.06,518.537C286.25,518.379 286.43,518.209 286.604,518.034C287.865,516.765 288.889,515.24 289.751,513.532C290.527,511.979 291.089,510.205 291.417,508.2C291.688,506.542 291.806,504.727 291.762,502.753C291.684,498.973 291.135,495.694 290.122,492.908C289.887,492.261 289.615,491.646 289.345,491.045C288.167,488.428 286.607,486.243 284.503,484.546C282.463,482.909 280.144,481.549 277.478,480.647C274.048,479.486 270.089,479.069 265.677,479.165C265.677,479.165 260.235,479.403 253.454,479.409C252.46,479.41 251.437,479.378 250.399,479.354C239.758,479.112 227.481,478.727 227.481,478.727C226.795,478.727 226.239,479.283 226.239,479.969C226.239,479.969 226.22,482.015 226.262,485.223C226.291,487.406 226.361,490.124 226.434,493.103C226.754,506.005 227.282,523.749 227.282,523.749ZM227.687,523.526C227.749,521.441 228.229,505.158 228.528,493.103C228.602,490.124 228.671,487.406 228.7,485.223C228.723,483.485 228.728,482.088 228.727,481.173C232.11,481.069 241.79,480.78 250.399,480.584C251.437,480.561 252.46,480.528 253.454,480.529C260.235,480.536 265.677,480.773 265.677,480.773C269.114,480.851 272.224,481.306 275.024,482.087C275.945,482.344 276.826,482.648 277.685,482.961C279.803,483.733 281.752,484.66 283.483,485.89C285.493,487.321 287.137,489.176 288.238,491.551C289.634,494.563 290.162,498.331 290.073,502.753C290.031,504.606 289.847,506.304 289.524,507.847C289.153,509.616 288.591,511.173 287.839,512.523C287.301,513.498 286.692,514.39 286.018,515.202C285.604,515.701 285.14,516.145 284.697,516.605C284.02,517.308 283.368,518.016 282.593,518.622C281.692,519.33 280.763,520.019 279.7,520.54C278.189,521.282 276.488,521.73 274.697,522.099C273.126,522.412 271.519,522.638 269.874,522.777C268.286,522.912 266.664,522.964 265.007,522.937C265.007,522.937 249.794,522.621 238.739,522.569C238.358,522.567 237.982,522.557 237.613,522.574C235.732,522.661 234.026,522.878 232.547,523.021C230.041,523.262 228.268,523.46 227.687,523.526L227.687,523.526ZM227.282,456.069C227.282,456.179 227.371,456.268 227.481,456.268C227.481,456.268 229.119,456.489 231.743,456.778C232.982,456.914 234.415,457.046 236.005,457.205C236.146,457.219 236.287,457.241 236.431,457.248C236.984,457.275 237.554,457.251 238.136,457.246C248.599,457.153 262.996,456.836 262.996,456.836C266.003,456.785 268.748,456.395 271.24,455.689C272.061,455.456 272.842,455.155 273.622,454.892C275.568,454.239 277.397,453.538 279.085,452.515C279.286,452.386 279.485,452.259 279.671,452.113C281.34,450.808 282.563,449.067 283.48,447.078C284.742,444.342 285.343,441.014 285.243,437.083C285.2,435.317 285.014,433.703 284.689,432.236C284.385,430.865 283.941,429.633 283.417,428.508C283.275,428.204 283.136,427.903 282.982,427.614C282.333,426.361 281.56,425.242 280.674,424.247C279.754,423.213 278.705,422.325 277.534,421.565C276.352,420.799 275.085,420.116 273.695,419.605C272.401,419.129 271.004,418.815 269.538,418.572C268.029,418.342 266.494,418.179 264.931,418.087C263.418,417.999 261.881,417.973 260.316,418.014C260.316,418.014 258.356,418.086 255.391,418.14C253.949,418.166 252.271,418.212 250.466,418.193C244.361,418.128 236.825,417.729 232.078,417.605C229.298,417.532 227.481,417.512 227.481,417.512C226.788,417.512 226.226,418.073 226.226,418.766C226.226,418.766 226.231,420.51 226.284,423.243C226.32,425.103 226.386,427.419 226.459,429.957C226.776,440.951 227.282,456.069 227.282,456.069ZM227.688,455.842C227.752,453.92 228.209,440.162 228.503,429.957C228.576,427.419 228.642,425.103 228.678,423.243C228.704,421.889 228.719,420.779 228.727,420.002C229.529,419.988 230.682,419.965 232.078,419.928C236.825,419.804 244.361,419.405 250.466,419.34C252.271,419.321 253.949,419.367 255.391,419.393C258.356,419.447 260.316,419.519 260.316,419.519C261.834,419.559 263.322,419.662 264.783,419.825C266.282,419.993 267.748,420.227 269.187,420.524C270.31,420.751 271.368,421.069 272.392,421.395C272.847,421.54 273.299,421.672 273.738,421.831C274.745,422.194 275.701,422.616 276.603,423.116C277.692,423.719 278.68,424.444 279.562,425.307C280.433,426.16 281.206,427.133 281.877,428.235C282.029,428.491 282.179,428.751 282.309,429.027C282.795,430.061 283.116,431.23 283.34,432.504C283.584,433.896 283.677,435.422 283.636,437.083C283.562,440.028 283.09,442.586 282.229,444.763C281.347,446.992 279.988,448.741 278.296,450.194C278.107,450.357 277.927,450.529 277.732,450.688C276.496,451.803 275.177,452.824 273.623,453.562C273.243,453.742 272.844,453.887 272.44,454.025C269.656,454.977 266.494,455.357 262.996,455.302C262.996,455.302 248.599,454.985 238.136,454.892C237.554,454.887 236.984,454.863 236.431,454.89C236.287,454.897 236.146,454.919 236.005,454.933C234.415,455.092 232.982,455.224 231.743,455.36C229.665,455.588 228.205,455.775 227.688,455.842L227.688,455.842Z"/>
            </g>
        </g>
    </g>
</svg>
